<svg width="130" height="54" viewBox="0 0 130 54" fill="none" xmlns="http://www.w3.org/2000/svg">
<path fill-rule="evenodd" clip-rule="evenodd" d="M42.295 35.4321L46.8187 35.4074C45.9782 32.8642 45.558 30.2469 45.558 27.5309V0C43.9759 0.765432 42.1961 1.45679 40.2433 2.07407C41.0096 3.7037 41.4051 6.64198 41.4051 10.8889C40.4163 10.1481 39.1556 9.77778 37.5983 9.77778C34.533 9.77778 32.0117 11.0864 30.0588 13.7037C28.106 16.321 27.1172 19.7284 27.1172 23.9012C27.1172 27.6049 27.9082 30.5185 29.4903 32.6173C31.0723 34.716 33.0993 35.7778 35.596 35.7778C38.0927 35.7778 40.0208 34.6914 41.4051 32.5432C41.5781 33.6049 41.8747 34.5679 42.295 35.4321ZM38.241 32.4198V32.3951C36.2881 32.3951 34.7061 31.5309 33.4948 29.8025C32.2836 28.0741 31.6656 25.4568 31.6656 21.9506C31.6656 18.5185 32.16 15.9012 33.1735 14.0741C34.187 12.2469 35.596 11.3333 37.4005 11.3333C38.5129 11.3333 39.4522 11.7284 40.2185 12.5432C40.9848 13.358 41.3804 14.716 41.3804 16.642V31.2593C40.4657 32.0247 39.4275 32.4198 38.241 32.4198ZM60.2411 35.9756L60.1422 36.0003C57.077 36.0003 54.7039 34.741 52.9983 32.1978C51.2926 29.6546 50.4521 26.4941 50.4521 22.7163C50.4521 18.7904 51.3915 15.6299 53.2455 13.2348C55.0994 10.8398 57.5219 9.62988 60.4883 9.62988C63.5535 9.62988 65.9513 10.8891 67.6569 13.4077C69.3626 15.9262 70.2278 19.062 70.2278 22.8398C70.2278 26.7657 69.3131 29.9262 67.4839 32.3459C65.6547 34.7657 63.2321 35.9756 60.2411 35.9756ZM60.6366 34.42V34.4941C62.1198 34.4941 63.3063 33.6052 64.1715 31.8521C65.0367 30.099 65.4816 27.4817 65.4816 24.0003C65.4816 21.6793 65.3086 19.5805 64.9625 17.7286C64.6164 15.8768 64.0232 14.3212 63.158 13.0867C62.2928 11.8521 61.2299 11.2348 59.9444 11.2348C58.3871 11.2348 57.2006 12.1237 56.3601 13.9015C55.5197 15.6793 55.0994 18.2719 55.0994 21.704C55.0994 25.3336 55.5691 28.3706 56.4837 30.7904C57.3983 33.2101 58.7826 34.42 60.6366 34.42ZM119.915 36.0003L120.014 35.9756C123.005 35.9756 125.427 34.7657 127.256 32.3459C129.086 29.9262 130 26.7657 130 22.8398C130 19.062 129.135 15.9262 127.429 13.4077C125.724 10.8891 123.326 9.62988 120.261 9.62988C117.294 9.62988 114.872 10.8398 113.018 13.2348C111.164 15.6299 110.225 18.7904 110.225 22.7163C110.225 26.4941 111.065 29.6546 112.771 32.1978C114.476 34.741 116.849 36.0003 119.915 36.0003ZM120.409 34.4941V34.42C118.555 34.42 117.171 33.2101 116.256 30.7904C115.342 28.3706 114.872 25.3336 114.872 21.704C114.872 18.2719 115.292 15.6793 116.133 13.9015C116.973 12.1237 118.16 11.2348 119.717 11.2348C121.002 11.2348 122.065 11.8521 122.93 13.0867C123.796 14.3212 124.389 15.8768 124.735 17.7286C125.081 19.5805 125.254 21.6793 125.254 24.0003C125.254 27.4817 124.809 30.099 123.944 31.8521C123.079 33.6052 121.892 34.4941 120.409 34.4941ZM105.577 27.4568L105.602 27.4074V16.7901C105.577 12.074 103.674 9.72837 99.8915 9.72837C96.8016 9.70368 94.2802 11.3333 92.3521 14.6173C91.7835 11.358 89.9543 9.72837 86.8643 9.72837C83.8733 9.72837 81.4013 11.2592 79.4732 14.321C79.4732 12.4197 79.2013 10.8642 78.6575 9.6543C77.2979 10.4197 75.79 11.1852 74.1338 11.9259C74.9001 13.4815 75.2956 16.5185 75.2956 21.037V27.4568C75.2956 30.642 74.9001 33.3086 74.1338 35.4568H80.6597C79.844 33.3333 79.4485 30.6666 79.4485 27.4568V15.7778C81.0553 13.8271 82.8103 12.8642 84.7137 12.8642C87.1363 12.8395 88.3475 14.4938 88.3475 17.8024V35.4568H93.8353C92.9454 33.0123 92.5004 30.3457 92.5004 27.4568V16.8395C92.5004 16.395 92.4757 16.0494 92.451 15.8271C94.0577 13.8518 95.8375 12.8642 97.7657 12.8642C100.213 12.8395 101.424 14.4938 101.424 17.8024V27.6296C101.399 30.7901 101.622 33.4074 102.067 35.4568H106.887C106.022 33.0123 105.577 30.3457 105.577 27.4568ZM25.6094 35.4072H17.3778C17.6745 34.5677 17.8228 33.3825 17.8228 31.8269C17.8228 30.3701 17.6497 29.0368 17.3284 27.8269L16.4138 24.7899H6.79787L5.88325 27.8269C5.46302 29.1356 5.26526 30.5183 5.26526 31.9751C5.26526 33.5306 5.48773 34.6664 5.93269 35.4072H0C1.45845 33.7282 2.74387 31.1109 3.85625 27.58L11.6923 2.54297H14.0901L21.9757 27.58C23.1375 31.2837 24.3487 33.901 25.6094 35.4072ZM7.19338 23.3331H15.9441L11.5935 8.71581L7.19338 23.3331ZM33 54V46H34.6605V49.122H37.9816V46H39.6422V54H37.9816V50.6313H34.6605V54H33ZM45.7529 46V54H51.1642V52.5308H47.4135V50.6198H50.9494V49.1564H47.4135V47.4692H51.1642V46H45.7529ZM56.4033 54L59.7128 46H60.9437L64.2473 54H62.4358L61.8843 52.5423H58.7722L58.2148 54H56.4033ZM59.3354 51.0732H61.3327L60.3399 48.439L59.3354 51.0732ZM69.6826 46V54H74.7281V52.5308H71.3432V46H69.6826ZM80.7598 54V47.4692H78.3213V46H84.8706V47.4692H82.4436V54H80.7598ZM90.3574 54V46H92.018V49.122H95.3391V46H96.9996V54H95.3391V50.6313H92.018V54H90.3574Z" fill="#163C3B"/>
</svg>
